<svg width="131" height="61" viewBox="0 0 131 61" version="1.1" xmlns="http://www.w3.org/2000/svg" xmlns:xlink="http://www.w3.org/1999/xlink"><defs><path d="M5.35 6.182l4.199 11.303a.258.258 0 01-.03.232.242.242 0 01-.2.107H1.596L.073 22.503l10.749-.008c.309 0 .589.2.695.498l.958 2.682c.188.525.68.877 1.225.877h2.076a1.3 1.3 0 001.068-.57c.245-.359.302-.817.156-1.227L8.491 1.095c-.187-.524-.674-.9-1.219-.9L5.35 6.181z" id="path-1"/><path d="M1.725.206A1.24 1.24 0 00.778.62a1.356 1.356 0 00-.372.938V25.2c0 .382.127.706.379.963.252.259.568.389.94.389h1.94c.373 0 .689-.13.941-.39a1.33 1.33 0 00.379-.962v-3.083c0-.208.065-.368.207-.504a.675.675 0 01.486-.208h2.445c2.826 0 5.294-1.021 7.333-3.037 2.041-2.017 3.101-4.51 3.151-7.41.049-2.923-.95-5.474-2.965-7.58-2.017-2.105-4.5-3.172-7.376-3.172h-6.54zM4.978 16.72a.997.997 0 01-.306-.72V5.648a.98.98 0 01.306-.737.98.98 0 01.7-.295h2.48c1.701 0 3.164.62 4.385 1.86 1.223 1.24 1.82 2.721 1.798 4.44-.049 1.695-.66 3.138-1.833 4.329-1.174 1.192-2.588 1.787-4.242 1.787H5.678a.952.952 0 01-.7-.313z" id="path-3"/><path d="M5.21.871c-1.12.512-2 1.189-2.615 2.01-.603.809-1.065 1.64-1.372 2.474a7.22 7.22 0 00-.47 2.505 7.326 7.326 0 00.847 3.43c.241.443.594.89 1.046 1.327.434.421.83.77 1.176 1.035.347.269.828.563 1.427.876.589.308 1.046.542 1.37.701.327.162.809.381 1.431.65 1.808.795 3.083 1.486 3.789 2.056.657.53.976 1.182.976 1.994 0 .556-.124 1.022-.38 1.428a2.554 2.554 0 01-.978.92c-.416.22-.831.378-1.235.47a5.39 5.39 0 01-1.188.139c-2.342 0-3.832-.99-4.56-3.038a1.337 1.337 0 00-1.541-.855l-1.91.443a1.34 1.34 0 00-.628.36 1.37 1.37 0 00-.349.62c-.03.111-.045.223-.046.34v.032c.001.123.018.25.052.383.862 2.653 2.49 4.525 4.838 5.564l.224.114c1.18.479 2.5.721 3.92.721 2.142 0 4.017-.616 5.574-1.832 1.842-1.455 2.777-3.41 2.777-5.809 0-.507-.038-.99-.111-1.434a5.153 5.153 0 00-.385-1.276 21.41 21.41 0 00-.51-1.047 4.293 4.293 0 00-.736-.993 39.274 39.274 0 00-.778-.78 6.196 6.196 0 00-.964-.738l-.953-.608a10.387 10.387 0 00-1.075-.57c-.446-.21-.785-.365-1.015-.464a59.01 59.01 0 01-.984-.44c-1.739-.771-2.96-1.427-3.633-1.95-.617-.479-.917-1.057-.917-1.77v-.202c0-.015.003-.104.08-.398a4.17 4.17 0 01.215-.631c.083-.192.219-.401.402-.622a3.5 3.5 0 01.66-.608c.242-.175.567-.32.963-.434a4.98 4.98 0 011.353-.171c2.03 0 3.446.754 4.324 2.302.16.294.403.493.72.59.312.097.614.08.898-.05l1.767-.798c.378-.129.645-.402.77-.79a1.37 1.37 0 00-.093-1.101C15.656 1.736 12.835.108 8.997.108c-1.4 0-2.674.256-3.788.763" id="path-5"/><path d="M1.258 6.782l-.114 1.443C1.02 9.832.788 12.795.438 17.15a1.3 1.3 0 00.352 1.02c.264.286.588.431.965.431h1.941c.344 0 .646-.122.895-.363.123-.117.22-.251.29-.398a1.39 1.39 0 00.131-.49c.28-3.098.56-6.197.838-9.294L1.76.434c-.177 2.25-.402 5.103-.502 6.348" id="path-7"/><path d="M.377 8.025l.841 9.328c.03.35.172.65.42.887.251.24.552.362.896.362h1.942c.375 0 .699-.144.963-.432.144-.155.244-.329.301-.514.073-.238.057-.438.052-.505-.13-1.593-.246-3.147-.364-4.717-.139-1.832-.278-3.685-.44-5.645L4.495.433.377 8.025z" id="path-9"/><path d="M1.575.192C1.2.192.882.33.63.604a1.342 1.342 0 00-.372.936v2.024c0 .355.125.67.371.935.25.274.568.413.945.413h4.882c.183 0 .341.068.487.209a.658.658 0 01.208.504v19.579c0 .382.127.705.377.96.25.258.566.388.938.388h1.938c.345 0 .652-.129.914-.38a1.3 1.3 0 00.403-.968V5.625c0-.212.062-.375.196-.511a.66.66 0 01.498-.202h4.882c.376 0 .693-.14.944-.412.247-.27.371-.596.371-.972V1.54a1.35 1.35 0 00-.371-.936 1.238 1.238 0 00-.944-.412H1.575z" id="path-11"/><path d="M1.327.206C.982.206.676.334.412.587a1.299 1.299 0 00-.402.968v23.61c0 .382.133.712.395.98.263.27.572.407.92.407h13.39c.375 0 .692-.139.944-.413a1.39 1.39 0 00.372-.973v-1.937c0-.38-.127-.703-.378-.962a1.268 1.268 0 00-.937-.387H5.274a.584.584 0 01-.322-.1.825.825 0 01-.274-.281.694.694 0 01-.097-.367V1.555c0-.247-.056-.476-.165-.686a1.188 1.188 0 00-.484-.495 1.355 1.355 0 00-.667-.168H1.327z" id="path-13"/><path d="M1.685.194a1.28 1.28 0 00-.913.382 1.296 1.296 0 00-.403.968v23.66c0 .385.136.71.401.966.26.253.568.382.914.382h1.939c.371 0 .687-.13.937-.387s.379-.58.379-.961V1.544c0-.38-.127-.704-.379-.962a1.266 1.266 0 00-.937-.388H1.685z" id="path-15"/><path id="path-17" d="M.08.443h6.158v6.38H.08z"/></defs><g id="Home" stroke="none" stroke-width="1" fill="none" fill-rule="evenodd"><g id="Desktop-HD-Copy-11" transform="translate(-113 -45)"><g id="Logo---White" transform="translate(113 45)"><g id="Group-37-Copy"><g id="Group-3" transform="translate(36.47 33.669)"><mask id="mask-2" fill="#fff"><use xlink:href="#path-1"/></mask><path d="M5.35 6.182l4.199 11.303a.258.258 0 01-.03.232.242.242 0 01-.2.107H1.596L.073 22.503l10.749-.008c.309 0 .589.2.695.498l.958 2.682c.188.525.68.877 1.225.877h2.076a1.3 1.3 0 001.068-.57c.245-.359.302-.817.156-1.227L8.491 1.095c-.187-.524-.674-.9-1.219-.9L5.35 6.181z" id="Fill-1" fill="#FFF" mask="url(#mask-2)"/></g><g id="Group-6" transform="translate(85.247 33.669)"><mask id="mask-4" fill="#fff"><use xlink:href="#path-3"/></mask><path d="M1.725.206A1.24 1.24 0 00.778.62a1.356 1.356 0 00-.372.938V25.2c0 .382.127.706.379.963.252.259.568.389.94.389h1.94c.373 0 .689-.13.941-.39a1.33 1.33 0 00.379-.962v-3.083c0-.208.065-.368.207-.504a.675.675 0 01.486-.208h2.445c2.826 0 5.294-1.021 7.333-3.037 2.041-2.017 3.101-4.51 3.151-7.41.049-2.923-.95-5.474-2.965-7.58-2.017-2.105-4.5-3.172-7.376-3.172h-6.54zM4.978 16.72a.997.997 0 01-.306-.72V5.648a.98.98 0 01.306-.737.98.98 0 01.7-.295h2.48c1.701 0 3.164.62 4.385 1.86 1.223 1.24 1.82 2.721 1.798 4.44-.049 1.695-.66 3.138-1.833 4.329-1.174 1.192-2.588 1.787-4.242 1.787H5.678a.952.952 0 01-.7-.313z" id="Fill-4" fill="#FFF" mask="url(#mask-4)"/></g><g id="Group-9" transform="translate(0 33.201)"><mask id="mask-6" fill="#fff"><use xlink:href="#path-5"/></mask><path d="M5.21.871c-1.12.512-2 1.189-2.615 2.01-.603.809-1.065 1.64-1.372 2.474a7.22 7.22 0 00-.47 2.505 7.326 7.326 0 00.847 3.43c.241.443.594.89 1.046 1.327.434.421.83.77 1.176 1.035.347.269.828.563 1.427.876.589.308 1.046.542 1.37.701.327.162.809.381 1.431.65 1.808.795 3.083 1.486 3.789 2.056.657.53.976 1.182.976 1.994 0 .556-.124 1.022-.38 1.428a2.554 2.554 0 01-.978.92c-.416.22-.831.378-1.235.47a5.39 5.39 0 01-1.188.139c-2.342 0-3.832-.99-4.56-3.038a1.337 1.337 0 00-1.541-.855l-1.91.443a1.34 1.34 0 00-.628.36 1.37 1.37 0 00-.349.62c-.03.111-.045.223-.046.34v.032c.001.123.018.25.052.383.862 2.653 2.49 4.525 4.838 5.564l.224.114c1.18.479 2.5.721 3.92.721 2.142 0 4.017-.616 5.574-1.832 1.842-1.455 2.777-3.41 2.777-5.809 0-.507-.038-.99-.111-1.434a5.153 5.153 0 00-.385-1.276 21.41 21.41 0 00-.51-1.047 4.293 4.293 0 00-.736-.993 39.274 39.274 0 00-.778-.78 6.196 6.196 0 00-.964-.738l-.953-.608a10.387 10.387 0 00-1.075-.57c-.446-.21-.785-.365-1.015-.464a59.01 59.01 0 01-.984-.44c-1.739-.771-2.96-1.427-3.633-1.95-.617-.479-.917-1.057-.917-1.77v-.202c0-.015.003-.104.08-.398a4.17 4.17 0 01.215-.631c.083-.192.219-.401.402-.622a3.5 3.5 0 01.66-.608c.242-.175.567-.32.963-.434a4.98 4.98 0 011.353-.171c2.03 0 3.446.754 4.324 2.302.16.294.403.493.72.59.312.097.614.08.898-.05l1.767-.798c.378-.129.645-.402.77-.79a1.37 1.37 0 00-.093-1.101C15.656 1.736 12.835.108 8.997.108c-1.4 0-2.674.256-3.788.763" id="Fill-7" fill="#FFF" mask="url(#mask-6)"/></g><g id="Group-12" transform="translate(56.071 41.613)"><mask id="mask-8" fill="#fff"><use xlink:href="#path-7"/></mask><path d="M1.258 6.782l-.114 1.443C1.02 9.832.788 12.795.438 17.15a1.3 1.3 0 00.352 1.02c.264.286.588.431.965.431h1.941c.344 0 .646-.122.895-.363.123-.117.22-.251.29-.398a1.39 1.39 0 00.131-.49c.28-3.098.56-6.197.838-9.294L1.76.434c-.177 2.25-.402 5.103-.502 6.348" id="Fill-10" fill="#FFF" mask="url(#mask-8)"/></g><g id="Group-15" transform="translate(76.585 41.613)"><mask id="mask-10" fill="#fff"><use xlink:href="#path-9"/></mask><path d="M.377 8.025l.841 9.328c.03.35.172.65.42.887.251.24.552.362.896.362h1.942c.375 0 .699-.144.963-.432.144-.155.244-.329.301-.514.073-.238.057-.438.052-.505-.13-1.593-.246-3.147-.364-4.717-.139-1.832-.278-3.685-.44-5.645L4.495.433.377 8.025z" id="Fill-13" fill="#FFF" mask="url(#mask-10)"/></g><path d="M69.43 57.28c-.51 0-.91-.249-1.154-.72l-6.04-11.24-4.097-7.516.006-.093c.06-.986.06-.986.206-2.6a1.369 1.369 0 01.42-.884 1.25 1.25 0 01.897-.364h.827c.517 0 .92.235 1.168.678l7.735 14.417c.05.019.055.02.072-.01l7.726-14.403c.25-.447.654-.682 1.171-.682h.827c.34 0 .646.12.907.357.264.24.413.539.446.891l.199 2.575.007.095-4.093 7.54-6.077 11.243c-.243.468-.643.717-1.153.717" id="Fill-16" fill="#FFF"/><g id="Group-20" transform="translate(19.146 33.669)"><mask id="mask-12" fill="#fff"><use xlink:href="#path-11"/></mask><path d="M1.575.192C1.2.192.882.33.63.604a1.342 1.342 0 00-.372.936v2.024c0 .355.125.67.371.935.25.274.568.413.945.413h4.882c.183 0 .341.068.487.209a.658.658 0 01.208.504v19.579c0 .382.127.705.377.96.25.258.566.388.938.388h1.938c.345 0 .652-.129.914-.38a1.3 1.3 0 00.403-.968V5.625c0-.212.062-.375.196-.511a.66.66 0 01.498-.202h4.882c.376 0 .693-.14.944-.412.247-.27.371-.596.371-.972V1.54a1.35 1.35 0 00-.371-.936 1.238 1.238 0 00-.944-.412H1.575z" id="Fill-18" fill="#FFF" mask="url(#mask-12)"/></g><g id="Group-23" transform="translate(107.128 33.669)"><mask id="mask-14" fill="#fff"><use xlink:href="#path-13"/></mask><path d="M1.327.206C.982.206.676.334.412.587a1.299 1.299 0 00-.402.968v23.61c0 .382.133.712.395.98.263.27.572.407.92.407h13.39c.375 0 .692-.139.944-.413a1.39 1.39 0 00.372-.973v-1.937c0-.38-.127-.703-.378-.962a1.268 1.268 0 00-.937-.387H5.274a.584.584 0 01-.322-.1.825.825 0 01-.274-.281.694.694 0 01-.097-.367V1.555c0-.247-.056-.476-.165-.686a1.188 1.188 0 00-.484-.495 1.355 1.355 0 00-.667-.168H1.327z" id="Fill-21" fill="#FFF" mask="url(#mask-14)"/></g><g id="Group-26" transform="translate(125.363 33.669)"><mask id="mask-16" fill="#fff"><use xlink:href="#path-15"/></mask><path d="M1.685.194a1.28 1.28 0 00-.913.382 1.296 1.296 0 00-.403.968v23.66c0 .385.136.71.401.966.26.253.568.382.914.382h1.939c.371 0 .687-.13.937-.387s.379-.58.379-.961V1.544c0-.38-.127-.704-.379-.962a1.266 1.266 0 00-.937-.388H1.685z" id="Fill-24" fill="#FFF" mask="url(#mask-16)"/></g><g id="Group-36" transform="translate(44.675 .024)"><g id="Group-29" transform="translate(42.851)"><mask id="mask-18" fill="#fff"><use xlink:href="#path-17"/></mask><path d="M.08 5.612c.793.195 1.477.374 2.127.557l2.327.653 1.704-5.127A81.134 81.134 0 001.798.443L.08 5.613z" id="Fill-27" fill="#FFF" mask="url(#mask-18)"/></g><path d="M18.394 14.178c-1.39 0-2.52 1.16-2.52 2.585s1.132 2.583 2.521 2.582c1.39 0 2.52-1.158 2.52-2.583 0-1.425-1.131-2.585-2.52-2.584" id="Fill-30" fill="#FFF"/><path d="M30.95 14.175c-1.388 0-2.517 1.16-2.517 2.585 0 1.424 1.13 2.583 2.52 2.582 1.39 0 2.52-1.159 2.52-2.583-.001-1.426-1.132-2.585-2.522-2.584" id="Fill-32" fill="#FFF"/><path d="M.423 2.333l6.958 20.9.095.24c.15.334 1.644 3.452 5.629 4.288 2.393.503 7.189.744 10.79.859l.774.022.803-.024c3.574-.115 8.34-.357 10.74-.863 3.93-.826 5.431-3.863 5.625-4.29l4.788-14.463-2.351-.66c-8.192-2.301-15.892-2.717-18.823-2.79a49.944 49.944 0 00-.829-.015c-.21.003-.465.008-.765.015l-.595.014C16.961 5.555 9.426 7.403 9.426 7.403l1.497 4.496s7.896-1.616 12.312-1.62l1.384-.03.717.013c2.263.056 8.243.354 14.927 1.908l.43.1-3.078 9.299c-.23.373-.916 1.273-2.328 1.57-1.596.337-5.245.617-10.011.77l-.607.018-.68-.019c-4.738-.15-8.369-.428-9.961-.763-1.453-.305-2.145-1.262-2.323-1.548l-.04-.087L4.862 1.079c-1.5.377-2.99.798-4.44 1.254" id="Fill-34" fill="#FFF"/></g></g></g></g></g></svg>